<?xml version="1.0" encoding="UTF-8"?>
<svg id="Layer_1" data-name="Layer 1" xmlns="http://www.w3.org/2000/svg" viewBox="0 0 250 52">
  <g id="logo-symbol">
    <path d="M33.44,18.36c1.8-.72,2.42-3.49,4.83-2.93,1.84.43,4.1.73,5.27,1.95,1.17,1.23,1.77,3.59,1.6,5.35-.16,1.6-1.69,3.07-2.54,4.48,3.84,0,7.41-4.55,6.54-8.89-.35-1.74.11-2.85,1.35-4.03,2.99-2.84,5.85-5.83,8.77-8.75,1.67-1.67,3.21-1.39,4.14.82.28.65.37,1.42.38,2.14.03,7.13.35,14.29-.15,21.38-.2,2.85.84,4.69,2.13,6.74,1.8,2.88,3.65,5.72,5.44,8.61,1.07,1.73.54,2.67-1.49,2.67-19.3,0-38.6,0-57.9-.02-.61,0-1.64-.26-1.74-.6-.19-.64-.02-1.56.34-2.15,2.24-3.67,4.55-7.29,6.88-10.91.57-.89,1.05-1.71.53-2.81-.18-.38-.1-.89-.11-1.34,0-7.24-.02-14.49,0-21.73,0-2.76,1.56-4.26,4.36-4.26,8.6,0,17.21-.02,25.81.04.72,0,1.44.56,2.16.86-.3.67-.52,1.4-.94,2-.41.59-1.07,1.01-1.53,1.58-1.75,2.16-3.66,3.37-6.78,3.05-3.72-.39-7.13,3.11-7.35,6.76ZM44.07,7.98l-.12-.7c-.49-.03-.99-.09-1.48-.09-6.51,0-13.02,0-19.53,0-2.03,0-2.19.17-2.19,2.27-.01,6.62.03,13.24-.04,19.86-.02,1.64.6,2.23,2.17,2.23,11.94-.02,23.88-.02,35.82,0,1.51,0,2.09-.62,2.07-2.16-.07-4.87-.03-9.73-.03-14.6,0-1.95,0-3.9,0-5.84-.24-.16-.48-.33-.72-.49-1.92,2.13-3.74,4.35-5.78,6.36-1.35,1.33-2.34,2.59-1.99,4.63.14.8-.07,1.7-.25,2.52-1.27,5.81-6.35,9.13-12.45,8.52-.78-.08-1.82-.88-2.1-1.6-.23-.57.37-1.65.87-2.28.9-1.15,2-2.14,3.03-3.18,1.22-1.23.57-2.66-.14-3.53-.62-.76-2.03-.97-3.14-1.15-.29-.05-.75.95-1.32,1.73-.82.62-2,1.46-3.12,2.38-1.55,1.28-3.01.9-3.15-1.12-.14-2.1-.13-4.35.49-6.32,1.42-4.47,5.61-7,10.69-7.03.8,0,1.6-.28,2.41-.43ZM13.55,45.26c1.05,0,1.66,0,2.26,0,4.41,0,8.83,0,13.24,0,3.77,0,3.83.02,4.87-3.64.38-1.35,1.08-1.81,2.42-1.77,2.37.07,4.75.01,7.13.02,4.81.02,3.93-.46,5.15,3.91.31,1.11.76,1.54,1.96,1.52,5.32-.07,10.64-.03,15.96-.04.36,0,.72-.08,1.32-.14-2.17-3.45-4.19-6.7-6.3-9.9-.24-.36-.94-.6-1.42-.61-12.9-.03-25.8-.03-38.7,0-.5,0-1.22.2-1.45.55-2.11,3.2-4.13,6.46-6.43,10.11Z" style="fill: #3c72fc; stroke-width: 0px;"/>
  </g>
  <g>
    <text transform="translate(75.32 23.6)" style="fill: #3c72fc; font-family: Pridi-Bold, Pridi; font-size: 26.35px; font-weight: 700;"><tspan x="0" y="0" style="letter-spacing: .04em;">S</tspan><tspan x="15.68" y="0" style="letter-spacing: .05em;">SN </tspan><tspan x="60.36" y="0" style="letter-spacing: .02em;">L</tspan><tspan x="74.64" y="0" style="letter-spacing: .05em;">A</tspan><tspan x="94.83" y="0" style="letter-spacing: 0em;">P</tspan><tspan x="111.74" y="0" style="letter-spacing: .02em;">T</tspan><tspan x="128.92" y="0" style="letter-spacing: .05em;">OP</tspan></text>
    <text transform="translate(77.28 44.51)" style="fill: #fff; font-family: Pridi-Light, Pridi; font-size: 15.32px; font-weight: 300;"><tspan x="0" y="0" style="letter-spacing: .22em;">SE</tspan><tspan x="23.15" y="0" style="letter-spacing: .16em;">R</tspan><tspan x="34.94" y="0" style="letter-spacing: .22em;">V</tspan><tspan x="49.11" y="0" style="letter-spacing: .19em;">I</tspan><tspan x="56.42" y="0" style="letter-spacing: .22em;">CE CENTER</tspan></text>
  </g>
</svg>