<?xml version="1.0" encoding="UTF-8"?>
<svg id="Layer_1" data-name="Layer 1" xmlns="http://www.w3.org/2000/svg" viewBox="0 0 250 52">
  <g id="logo-symbol">
    <path d="M33.37,18.36c1.8-.72,2.42-3.5,4.84-2.93,1.84.43,4.11.73,5.27,1.96,1.17,1.23,1.77,3.59,1.6,5.36-.16,1.6-1.69,3.07-2.54,4.48,3.84,0,7.42-4.55,6.55-8.89-.35-1.74.11-2.85,1.35-4.03,2.99-2.85,5.86-5.83,8.78-8.76,1.67-1.67,3.21-1.39,4.14.82.28.65.37,1.43.38,2.14.03,7.14.35,14.3-.15,21.4-.2,2.85.85,4.69,2.13,6.75,1.8,2.88,3.66,5.73,5.44,8.61,1.07,1.73.54,2.67-1.49,2.67-19.32,0-38.63,0-57.95-.02-.61,0-1.64-.26-1.74-.61-.19-.64-.02-1.56.34-2.15,2.24-3.67,4.56-7.3,6.88-10.92.57-.89,1.05-1.71.53-2.81-.18-.38-.1-.89-.11-1.34,0-7.25-.02-14.5,0-21.75,0-2.76,1.56-4.26,4.36-4.27,8.61,0,17.22-.02,25.83.04.72,0,1.44.56,2.16.86-.3.67-.52,1.4-.94,2-.41.59-1.07,1.01-1.54,1.58-1.76,2.16-3.66,3.38-6.79,3.05-3.73-.39-7.14,3.11-7.35,6.76ZM44.01,7.96l-.12-.7c-.49-.03-.99-.09-1.48-.09-6.51,0-13.03-.01-19.54,0-2.03,0-2.19.17-2.19,2.27-.01,6.63.03,13.25-.04,19.88-.02,1.64.6,2.24,2.17,2.23,11.95-.02,23.9-.02,35.85,0,1.51,0,2.1-.62,2.07-2.16-.07-4.87-.03-9.74-.03-14.61,0-1.95,0-3.9,0-5.85-.24-.16-.48-.33-.72-.49-1.92,2.13-3.75,4.35-5.79,6.36-1.35,1.33-2.35,2.6-1.99,4.64.14.8-.07,1.7-.25,2.52-1.27,5.81-6.36,9.14-12.46,8.53-.78-.08-1.82-.88-2.11-1.6-.23-.57.37-1.65.87-2.29.9-1.15,2-2.14,3.03-3.18,1.22-1.23.57-2.67-.14-3.53-.62-.76-2.04-.98-3.14-1.15-.29-.05-.75.95-1.33,1.74-.82.62-2,1.46-3.12,2.39-1.55,1.28-3.01.9-3.15-1.12-.14-2.1-.13-4.36.49-6.33,1.42-4.48,5.62-7.01,10.7-7.03.8,0,1.61-.28,2.41-.43ZM13.45,45.28c1.05,0,1.66,0,2.26,0,4.42,0,8.83,0,13.25,0,3.77,0,3.83.02,4.87-3.65.38-1.35,1.08-1.81,2.42-1.77,2.38.07,4.76.01,7.13.02,4.82.02,3.94-.46,5.16,3.91.31,1.12.76,1.54,1.96,1.52,5.32-.07,10.65-.03,15.97-.04.36,0,.72-.08,1.32-.14-2.18-3.45-4.2-6.71-6.3-9.91-.24-.37-.94-.6-1.43-.61-12.91-.03-25.82-.03-38.73,0-.5,0-1.22.2-1.45.56-2.11,3.21-4.13,6.47-6.44,10.12Z" style="fill: #fff; stroke-width: 0px;"/>
  </g>
  <g>
    <text transform="translate(75.28 23.6)" style="fill: #fff; font-family: Pridi-Bold, Pridi; font-size: 26.37px; font-weight: 700;"><tspan x="0" y="0" style="letter-spacing: .04em;">S</tspan><tspan x="15.69" y="0" style="letter-spacing: .05em;">SN </tspan><tspan x="60.42" y="0" style="letter-spacing: .02em;">L</tspan><tspan x="74.71" y="0" style="letter-spacing: .05em;">A</tspan><tspan x="94.91" y="0" style="letter-spacing: 0em;">P</tspan><tspan x="111.84" y="0" style="letter-spacing: .02em;">T</tspan><tspan x="129.03" y="0" style="letter-spacing: .05em;">OP</tspan></text>
    <text transform="translate(77.24 44.53)" style="fill: #fff; font-family: Pridi-Light, Pridi; font-size: 15.33px; font-weight: 300;"><tspan x="0" y="0" style="letter-spacing: .22em;">SE</tspan><tspan x="23.17" y="0" style="letter-spacing: .16em;">R</tspan><tspan x="34.97" y="0" style="letter-spacing: .22em;">V</tspan><tspan x="49.15" y="0" style="letter-spacing: .19em;">I</tspan><tspan x="56.47" y="0" style="letter-spacing: .22em;">CE CENTER</tspan></text>
  </g>
</svg>